<svg width="512" height="512" viewBox="0 0 512 512" fill="none" xmlns="http://www.w3.org/2000/svg">
<rect width="512" height="512" rx="120" fill="#5A29E4"/>
<path d="M163.425 111.819C147.988 111.8 132.7 114.798 118.447 120.638C104.194 126.479 91.2573 135.046 80.3869 145.844C58.2982 167.723 45.9301 197.347 46.0004 228.206C45.9623 243.481 48.9796 258.613 54.8797 272.739C60.7799 286.865 69.4474 299.707 80.3869 310.531L90.5226 320.369L91.0482 319.851C100.585 310.497 111.898 303.087 124.343 298.042C136.787 292.997 150.119 290.417 163.575 290.449C190.731 290.434 216.791 301.004 236.065 319.851L236.628 320.369L246.613 310.383C268.662 288.492 281.023 258.897 281 228.058C281 198.249 269.55 168.441 246.613 145.733C224.533 124.027 194.618 111.831 163.425 111.819ZM163.425 138.632C175.295 138.612 187.051 140.913 198.012 145.402C208.974 149.89 218.922 156.476 227.28 164.779C243.182 180.563 252.581 201.593 253.663 223.806C254.745 246.019 247.432 267.839 233.137 285.049C212.342 271.773 188.092 264.708 163.312 264.708C138.533 264.708 114.283 271.773 93.4883 285.049C80.2934 268.954 73.0869 248.895 73.0666 228.206C73.0666 205.35 81.8509 182.347 99.5698 164.779C107.916 156.46 117.862 149.862 128.826 145.373C139.79 140.883 151.552 138.592 163.425 138.632ZM163.425 317.077C143.979 317.077 124.384 324.548 109.443 339.267L126.11 355.651C131.027 350.798 136.867 346.947 143.295 344.32C149.724 341.693 156.615 340.341 163.575 340.341C170.535 340.341 177.426 341.693 183.855 344.32C190.284 346.947 196.124 350.798 201.04 355.651L217.67 339.267C202.654 324.548 183.134 317.077 163.425 317.077Z" fill="white"/>
<path fill-rule="evenodd" clip-rule="evenodd" d="M311 178.238C311 139.447 342.564 108 381.5 108C420.436 108 452 139.447 452 178.238V332.762C452 371.553 420.436 403 381.5 403C342.564 403 311 371.553 311 332.762V178.238ZM381.5 125.56C352.298 125.56 328.625 149.145 328.625 178.238V332.762C328.625 361.855 352.298 385.44 381.5 385.44C410.702 385.44 434.375 361.855 434.375 332.762V178.238C434.375 149.145 410.702 125.56 381.5 125.56Z" fill="white"/>
<path d="M422 187C422 208.539 404.763 226 383.5 226C362.237 226 345 208.539 345 187C345 165.461 362.237 148 383.5 148C404.763 148 422 165.461 422 187Z" fill="white"/>
<path d="M179 381C179 389.837 172.06 397 163.5 397C154.94 397 148 389.837 148 381C148 372.163 154.94 365 163.5 365C172.06 365 179 372.163 179 381Z" fill="white"/>
</svg>
